# AST/ASF file generated using VICON BodyLanguage
# -----------------------------------------------
:version 1.10
:name VICON
:units
  mass 1.0
  length 0.45
  angle deg
:documentation
   .ast/.asf automatically generated from VICON data using
   VICON BodyBuilder and BodyLanguage model FoxedUp or BRILLIANT.MOD
:root
   order TX TY TZ RX RY RZ
   axis XYZ
   position 0 0 0  
   orientation 0 0 0 
:bonedata
  begin
     id 1 
     name lhipjoint
     direction 0.690799 -0.707083 0.151096 
     length 2.54797 
     axis 0 0 0  XYZ
  end
  begin
     id 2 
     name lfemur
     direction 0.34202 -0.939693 0  
     length 7.21646  
     axis 0 0 20  XYZ
    dof rx ry rz
    limits (-160.0 20.0)
           (-70.0 70.0)
           (-60.0 70.0)
  end
  begin
     id 3 
     name ltibia
     direction 0.34202 -0.939693 0   
     length 8.16759   
     axis 0 0 20   XYZ
    dof rx
    limits (-10.0 170.0)
  end
  begin
     id 4 
     name lfoot
     direction 0.0487203 -0.133858 0.989802   
     length 1.93375   
     axis -90 7.62852e-016 20   XYZ
    dof rx rz
    limits (-45.0 90.0)
           (-70.0 20.0)
  end
  begin
     id 5 
     name ltoes
     direction 1.53453e-011 -4.21783e-011 1   
     length 0.979747   
     axis -90 7.62852e-016 20   XYZ
    dof rx
    limits (-90.0 20.0)
  end
  begin
     id 6 
     name rhipjoint
     direction -0.694693 -0.703425 0.150315   
     length 2.56122  
     axis 0 0 0  XYZ 
  end
  begin
     id 7 
     name rfemur
     direction -0.34202 -0.939693 0   
     length 7.36786   
     axis 0 0 -20   XYZ
    dof rx ry rz
    limits (-160.0 20.0)
           (-70.0 70.0)
           (-70.0 60.0)
  end
  begin
     id 8 
     name rtibia
     direction -0.34202 -0.939693 0   
     length 8.07288   
     axis 0 0 -20   XYZ
    dof rx
    limits (-10.0 170.0)
 end
 begin
     id 9 
     name rfoot
     direction -0.0428397 -0.117701 0.992125   
     length 1.88295  
     axis -90 -7.62852e-016 -20   XYZ
    dof rx rz
    limits (-45.0 90.0)
           (-20.0 70.0)
  end
  begin
     id 10 
     name rtoes
     direction -1.53456e-011 -4.2187e-011 1   
     length 0.955578   
     axis -90 -7.62852e-016 -20   XYZ
    dof rx
    limits (-90.0 20.0)
  end
  begin
     id 11 
     name lowerback
     direction 0.0288145 0.999398 -0.0193241   
     length 1.92149   
     axis 0 0 0   XYZ
    dof rx ry rz
    limits (-20.0 45.0)
           (-30.0 30.0)
           (-30.0 30.0)
  end
  begin
     id 12 
     name upperback
     direction 0.0233784 0.998099 0.0570278   
     length 1.90435   
     axis 0 0 0   XYZ
    dof rx ry rz
    limits (-20.0 45.0)
           (-30.0 30.0)
           (-30.0 30.0)
  end
  begin
     id 13 
     name thorax
     direction 0.0096694 0.997833 0.0650817   
     length 1.9111   
     axis 0 0 0   XYZ
    dof rx ry rz
    limits (-20.0 45.0)
           (-30.0 30.0)
           (-30.0 30.0)
  end
  begin
     id 14 
     name lowerneck
     direction 0.00516803 0.999916 0.0118722   
     length 1.74664   
     axis 0 0 0   XYZ
    dof rx ry rz
    limits (-20.0 45.0)
           (-30.0 30.0)
           (-30.0 30.0)
  end
  begin
     id 15 
     name upperneck
     direction -0.0510851 0.996117 -0.071696   
     length 1.68498   
     axis 0 0 0   XYZ
    dof rx ry rz
    limits (-20.0 45.0)
           (-30.0 30.0)
           (-30.0 30.0)
  end
  begin
     id 16
     name head
     direction -0.019188 0.999436 -0.0275702  
     length 1.83483  
     axis 0 0 0   XYZ
    dof rx ry rz
    limits (-20.0 45.0)
           (-30.0 30.0)
           (-30.0 30.0)
  end
  begin
     id 17 
     name lclavicle
     direction 0.967006 0.248456 -0.0562957  
     length 3.39395  
     axis 0 0 0   XYZ
    dof ry rz
    limits (-20.0 10.0)
           (0.0 20.0)
  end
  begin
     id 18 
     name lhumerus
     direction 1 -4.48962e-011 -5.62711e-019   
     length 5.24318   
     axis 180 -30 -90   XYZ
    dof rx ry rz
    limits (-60.0 90.0)
           (-90.0 90.0)
           (-90.0 90.0)
  end
  begin
     id 19
     name lradius
     direction 1 -4.48966e-011 7.90625e-027   
     length 2.98999   
     axis 180 -30 -90   XYZ
    dof rx
    limits (-10.0 170.0)
  end
  begin
     id 20
     name lwrist
     direction 1 -4.48959e-011 1.61068e-026   
     length 1.49499   
     axis -9.31229e-015 90 90   XYZ
    dof ry
    limits (-180.0 0.0)
 end
  begin
     id 21 
     name lhand
     direction 1 -4.49017e-011 3.22136e-026   
     length 0.726745   
     axis -2.0555e-014 90 90   XYZ
    dof rx rz
    limits (-90.0 90.0)
           (-45.0 45.0)
  end
  begin
     id 22 
     name lfingers
     direction 1 -4.4898e-011 6.44272e-026   
     length 0.58592   
     axis -4.11101e-014 90 90   XYZ
    dof rx
    limits (0.0 90.0)
  end
  begin
     id 23
     name lthumb
     direction 0.707107 -6.34922e-011 0.707107   
     length 0.841268   
     axis -90 45 2.85299e-015   XYZ
    dof rx rz
    limits (-45.0 45.0)
           (-45.0 45.0)
  end
  begin
     id 24 
     name rclavicle
     direction -0.972232 0.230238 0.0419005   
     length 3.40416  
     axis 0 0 0   XYZ 
    dof ry rz
    limits (-10.0 20.0)
           (-20.0 0.0)
  end
  begin
     id 25 
     name rhumerus
     direction -1 -4.48976e-011 2.48487e-027  
     length 5.37045   
     axis 180 30 90   XYZ
    dof rx ry rz
    limits (-90.0 60.0)
           (-90.0 90.0)
           (-90.0 90.0)
  end
  begin
     id 26 
     name rradius
     direction -1 -4.48942e-011 7.87951e-027   
     length 2.92792   
     axis 180 30 90   XYZ
    dof rx
    limits (-10.0 170.0)
  end
  begin
     id 27 
     name rwrist
     direction -1 -4.48969e-011 1.61068e-026   
     length 1.46396   
     axis -9.31229e-015 -90 -90   XYZ
    dof ry
    limits (-180.0 0.0)
  end
  begin
     id 28
     name rhand
     direction -1 -4.49043e-011 3.22136e-026   
     length 0.784497   
     axis -2.0555e-014 -90 -90   XYZ
    dof rx rz
    limits (-90.0 90.0)
           (-45.0 45.0)
  end
  begin
     id 29
     name rfingers
     direction -1 -4.48823e-011 6.44272e-026   
     length 0.632482   
     axis -4.11101e-014 -90 -90   XYZ
    dof rx
    limits (0.0 90.0)
  end
  begin
     id 30
     name rthumb
     direction -0.707107 -6.34923e-011 0.707107   
     length 0.908121   
     axis -90 -45 -2.85299e-015   XYZ
    dof rx rz
    limits (-45.0 45.0)
           (-45.0 45.0)
  end
:hierarchy
  begin
    root lhipjoint rhipjoint lowerback
    lhipjoint lfemur
    lfemur ltibia
    ltibia lfoot
    lfoot ltoes
    rhipjoint rfemur
    rfemur rtibia
    rtibia rfoot
    rfoot rtoes
    lowerback upperback
    upperback thorax
    thorax lowerneck lclavicle rclavicle
    lowerneck upperneck
    upperneck head
    lclavicle lhumerus
    lhumerus lradius
    lradius lwrist
    lwrist lhand lthumb
    lhand lfingers
    rclavicle rhumerus
    rhumerus rradius
    rradius rwrist
    rwrist rhand rthumb
    rhand rfingers
  end

#!OML:ASF E:\Style6\Style6.ASF
:FULLY-SPECIFIED
:DEGREES
949
root 0.51187 18.1342 -0.381556 38.2998 3.82424 -0.434288
lowerback 15.9414 -0.688784 9.98869
upperback 0.897269 1.56041 7.95006
thorax -8.00823 0.537729 2.6309
lowerneck 12.2007 -7.35584 3.46634
upperneck -15.0361 -7.91317 8.82748
head -6.37695 -4.7992 2.97334
rclavicle 3.18055e-015 -2.38542e-014
rhumerus 12.9065 -0.915284 -82.9948
rradius 26.1828
rwrist 40.0679
rhand -9.90947 4.81944
rfingers 7.12502
rthumb 16.0708 -24.5341
lclavicle 3.18055e-015 -2.38542e-014
lhumerus 10.0896 -31.9686 88.2437
lradius 32.9286
lwrist -11.4039
lhand -8.36234 21.8864
lfingers 7.12502
lthumb 17.5602 51.1134
rfemur -46.614 15.1539 4.20081
rtibia 8.04996
rfoot -15.0344 -34.0646
rtoes 32.9441
lfemur -61.3353 -40.2242 25.7808
ltibia 12.2059
lfoot -36.9212 48.9127
ltoes 38.0867
950
root 0.510332 18.1323 -0.38736 38.3194 3.91469 -0.38935
lowerback 15.9577 -0.68659 10.0785
upperback 0.902146 1.58923 8.03546
thorax -8.01255 0.549917 2.66917
lowerneck 12.3118 -7.36619 3.47906
upperneck -15.4723 -7.89068 8.84331
head -6.53686 -4.80731 2.99749
rclavicle -2.70347e-014 -1.30403e-013
rhumerus 12.9895 -1.04112 -82.8787
rradius 26.2767
rwrist 39.8233
rhand -9.68564 4.81875
rfingers 7.12502
rthumb 16.2863 -24.5173
lclavicle -2.70347e-014 -1.30403e-013
lhumerus 10.0873 -32.2647 88.2267
lradius 33.1826
lwrist -11.2386
lhand -8.3682 21.8539
lfingers 7.12502
lthumb 17.5545 51.0814
rfemur -46.783 15.0543 4.22456
rtibia 8.36316
rfoot -15.2389 -33.9938
rtoes 32.9993
lfemur -61.2568 -40.0689 25.5608
ltibia 12.1781
lfoot -36.074 49.0165
ltoes 37.5835
951
root 0.508559 18.1315 -0.393571 38.3269 3.92405 -0.269917
lowerback 16.0168 -0.720222 9.99326
upperback 0.953998 1.53795 8.09221
thorax -7.99377 0.5311 2.7898
lowerneck 12.3304 -7.2758 3.55374
upperneck -15.8903 -7.73159 8.82826
head -6.68432 -4.74863 2.98559
rclavicle 3.65764e-014 1.00187e-013
rhumerus 13.2155 -1.09595 -82.9335
rradius 26.3263
rwrist 39.7275
rhand -9.44285 4.7638
rfingers 7.12502
rthumb 16.5201 -24.5529
lclavicle 3.65764e-014 1.00187e-013
lhumerus 10.1672 -32.3234 88.0911
lradius 33.4043
lwrist -11.1469
lhand -8.26573 21.8457
lfingers 7.12502
lthumb 17.6531 51.0643
rfemur -46.9383 14.962 4.12958
rtibia 8.63869
rfoot -15.4112 -33.9803
rtoes 33.0401
lfemur -61.1681 -39.9526 25.245
ltibia 12.1612
lfoot -35.3165 49.099
ltoes 37.0287
952
root 0.507115 18.1297 -0.399683 38.2785 3.88587 -0.120616
lowerback 16.1381 -0.802222 9.81288
upperback 1.07253 1.40471 8.11965
thorax -7.93845 0.477759 2.94827
lowerneck 12.1878 -7.11031 3.72831
upperneck -16.2291 -7.47866 8.74317
head -6.78904 -4.64005 2.91677
rclavicle -2.54444e-014 -7.63333e-014
rhumerus 13.5529 -1.02484 -83.1205
rradius 26.3302
rwrist 39.6986
rhand -9.32217 4.75053
rfingers 7.12502
rthumb 16.6363 -24.5565
lclavicle -2.54444e-014 -7.63333e-014
lhumerus 10.376 -32.1656 87.8036
lradius 33.5813
lwrist -11.0355
lhand -8.18537 21.7548
lfingers 7.12502
lthumb 17.7305 50.9665
rfemur -47.048 14.8915 3.98366
rtibia 8.90076
rfoot -15.2099 -34.0705
rtoes 32.3805
lfemur -61 -39.8745 24.8187
ltibia 12.1454
lfoot -34.6892 49.0739
ltoes 36.6406
953
root 0.507107 18.1278 -0.404059 38.2391 3.92958 -0.12917
lowerback 16.1656 -0.840853 9.92771
upperback 1.17028 1.37023 8.16621
thorax -7.84571 0.461696 2.94109
lowerneck 12.0744 -6.98675 3.80228
upperneck -16.4949 -7.28704 8.75461
head -6.86452 -4.56151 2.89763
rclavicle 1.27222e-014 4.92986e-014
rhumerus 13.7738 -1.10144 -83.1837
rradius 26.3833
rwrist 39.7117
rhand -9.30791 4.70714
rfingers 7.12502
rthumb 16.65 -24.5987
lclavicle 1.27222e-014 4.92986e-014
lhumerus 10.5472 -32.1768 87.6533
lradius 33.731
lwrist -10.8986
lhand -8.23565 21.636
lfingers 7.12502
lthumb 17.6821 50.8521
rfemur -47.1737 14.8651 4.02091
rtibia 9.18036
rfoot -14.9319 -34.1834
rtoes 31.5147
lfemur -60.8847 -39.8114 24.6855
ltibia 12.1173
lfoot -34.3707 49.0231
ltoes 36.5028
954
root 0.507099 18.1241 -0.41079 38.2684 3.95284 -0.136829
lowerback 16.1298 -0.835123 10.0798
upperback 1.21834 1.3964 8.21114
thorax -7.77034 0.472232 2.89826
lowerneck 12.0091 -6.8894 3.72886
upperneck -16.7142 -7.13894 8.87626
head -6.92091 -4.50379 2.94051
rclavicle -1.27222e-014 0
rhumerus 13.9883 -1.35316 -83.2122
rradius 26.3312
rwrist 39.8901
rhand -9.37105 4.72432
rfingers 7.12502
rthumb 16.5892 -24.5866
lclavicle -1.27222e-014 0
lhumerus 10.6512 -32.3498 87.5801
lradius 33.8924
lwrist -10.7111
lhand -8.32891 21.4295
lfingers 7.12502
lthumb 17.5923 50.6536
rfemur -47.3632 14.8306 4.0222
rtibia 9.41929
rfoot -14.8064 -34.2342
rtoes 31.0991
lfemur -60.8553 -39.6991 24.6096
ltibia 12.0977
lfoot -34.1775 48.9172
ltoes 36.4902
955
root 0.506177 18.1208 -0.419226 38.3183 3.92006 -0.0818835
lowerback 16.1398 -0.8221 10.1133
upperback 1.26123 1.41751 8.23854
thorax -7.72831 0.483287 2.9038
lowerneck 11.9313 -6.77138 3.64143
upperneck -16.9548 -6.95705 9.03773
head -6.9815 -4.43327 2.99582
rclavicle -1.59028e-015 -3.81667e-014
rhumerus 14.2519 -1.45702 -83.1811
rradius 26.2461
rwrist 39.9411
rhand -9.28021 4.69656
rfingers 7.12502
rthumb 16.6767 -24.6071
lclavicle -1.59028e-015 -3.81667e-014
lhumerus 10.7631 -32.3559 87.5466
lradius 34.0256
lwrist -10.7502
lhand -8.25304 21.3003
lfingers 7.12502
lthumb 17.6653 50.5178
rfemur -47.5641 14.7824 3.92199
rtibia 9.61297
rfoot -14.5639 -34.3167
rtoes 30.3793
lfemur -60.7661 -39.5021 24.3321
ltibia 12.0761
lfoot -33.5479 48.908
ltoes 36.1432
956
root 0.50446 18.119 -0.426552 38.3099 3.86384 -0.0213681
lowerback 16.2279 -0.794444 10.1261
upperback 1.30362 1.46603 8.25566
thorax -7.73 0.50675 2.90478
lowerneck 11.8313 -6.65639 3.64823
upperneck -17.1249 -6.78339 9.09923
head -7.02322 -4.36054 3.00147
rclavicle 4.77083e-014 7.63333e-014
rhumerus 14.4402 -1.51335 -83.0975
rradius 26.2477
rwrist 39.8448
rhand -9.19927 4.65397
rfingers 7.12502
rthumb 16.7546 -24.6431
lclavicle 4.77083e-014 7.63333e-014
lhumerus 10.8634 -32.3749 87.5299
lradius 34.1787
lwrist -10.7346
lhand -8.17277 21.2734
lfingers 7.12502
lthumb 17.7426 50.484
rfemur -47.7142 14.7717 3.82311
rtibia 9.82748
rfoot -14.4993 -34.3531
rtoes 30.0795
lfemur -60.5279 -39.2953 23.911
ltibia 12.0112
lfoot -32.9124 48.8021
ltoes 35.974
957
root 0.504797 18.1172 -0.432704 38.304 3.80777 0.0563842
lowerback 16.2189 -0.772814 10.1749
upperback 1.38166 1.48826 8.22745
thorax -7.63601 0.518747 2.83854
lowerneck 11.6601 -6.5452 3.73852
upperneck -17.1704 -6.62275 9.09594
head -7.01756 -4.28785 2.9664
rclavicle 2.54444e-014 2.70347e-014
rhumerus 14.6604 -1.72704 -83.1515
rradius 26.1874
rwrist 39.9788
rhand -9.23381 4.67309
rfingers 7.12502
rthumb 16.7214 -24.6268
lclavicle 2.54444e-014 2.70347e-014
lhumerus 11.0886 -32.5314 87.3742
lradius 34.294
lwrist -10.5026
lhand -8.21608 21.3802
lfingers 7.12502
lthumb 17.7009 50.5946
rfemur -47.8467 14.7387 3.70046
rtibia 10.0144
rfoot -14.2047 -34.4433
rtoes 29.3595
lfemur -60.5049 -39.294 23.8114
ltibia 11.9483
lfoot -33.0424 48.6861
ltoes 36.2857
958
root 0.504837 18.1161 -0.439546 38.3305 3.7809 0.105397
lowerback 16.1118 -0.751297 10.2549
upperback 1.50831 1.49274 8.19728
thorax -7.43313 0.525125 2.75368
lowerneck 11.4348 -6.43034 3.83635
upperneck -17.2354 -6.45097 9.13721
head -7.00781 -4.21449 2.94215
rclavicle -1.11319e-014 -1.43125e-014
rhumerus 14.9766 -1.91342 -83.218
rradius 26.0884
rwrist 40.0923
rhand -9.25544 4.76384
rfingers 7.12502
rthumb 16.7005 -24.5378
lclavicle -1.11319e-014 -1.43125e-014
lhumerus 11.4274 -32.7652 87.0869
lradius 34.454
lwrist -10.2239
lhand -8.12561 21.5605
lfingers 7.12502
lthumb 17.788 50.7669
rfemur -47.9514 14.6228 3.70668
rtibia 10.1394
rfoot -14.0967 -34.3635
rtoes 29.0423
lfemur -60.5197 -39.261 23.7789
ltibia 11.8939
lfoot -33.3613 48.486
ltoes 36.7954
959
root 0.503617 18.1151 -0.446947 38.3578 3.71785 0.109716
lowerback 16.0753 -0.700449 10.3413
upperback 1.58498 1.55633 8.18541
thorax -7.32395 0.556636 2.67553
lowerneck 11.2958 -6.29853 3.88355
upperneck -17.2741 -6.25887 9.18464
head -7.0028 -4.12854 2.9287
rclavicle -1.27222e-014 4.77083e-015
rhumerus 15.2046 -2.06195 -83.1868
rradius 26.0178
rwrist 40.1883
rhand -9.27009 4.82439
rfingers 7.12502
rthumb 16.6864 -24.4784
lclavicle -1.27222e-014 4.77083e-015
lhumerus 11.6298 -32.8969 86.9862
lradius 34.5793
lwrist -10.1201
lhand -8.18325 21.6016
lfingers 7.12502
lthumb 17.7325 50.8131
rfemur -48.0497 14.5014 3.78775
rtibia 10.2411
rfoot -13.968 -34.2201
rtoes 28.8982
lfemur -60.4142 -39.1138 23.6061
ltibia 11.8379
lfoot -33.1399 48.4645
ltoes 36.7273
960
root 0.503207 18.1136 -0.453466 38.3954 3.60975 0.104944
lowerback 16.0492 -0.646761 10.3959
upperback 1.62033 1.62687 8.19435
thorax -7.26731 0.590728 2.63804
lowerneck 11.1511 -6.12803 3.8172
upperneck -17.126 -6.04572 9.23979
head -6.93151 -4.01805 2.92621
rclavicle 2.38542e-014 -6.52014e-014
rhumerus 15.3618 -2.05242 -83.0751
rradius 25.927
rwrist 40.2639
rhand -9.38277 4.78282
rfingers 7.12502
rthumb 16.578 -24.5291
lclavicle 2.38542e-014 -6.52014e-014
lhumerus 11.7574 -32.9257 87.0126
lradius 34.6006
lwrist -10.0382
lhand -8.48961 21.5299
lfingers 7.12502
lthumb 17.4377 50.7677
rfemur -48.1584 14.4455 3.80464
rtibia 10.2949
rfoot -13.6976 -34.1695
rtoes 28.6033
lfemur -60.4434 -39.0812 23.6386
ltibia 11.8085
lfoot -33.3575 48.4888
ltoes 36.7969
961
root 0.503957 18.1116 -0.459881 38.4179 3.52033 0.115209
lowerback 16.0481 -0.64737 10.4275
upperback 1.65055 1.62776 8.20644
thorax -7.23298 0.591601 2.63283
lowerneck 10.9373 -5.90638 3.6904
upperneck -16.7702 -5.79111 9.30367
head -6.77981 -3.8749 2.92234
rclavicle -1.90833e-014 -1.74931e-014
rhumerus 15.5303 -1.83692 -82.9879
rradius 25.8026
rwrist 40.28
rhand -9.48244 4.75931
rfingers 7.12502
rthumb 16.482 -24.5606
lclavicle -1.90833e-014 -1.74931e-014
lhumerus 11.907 -32.9681 86.9037
lradius 34.6327
lwrist -9.80506
lhand -8.66378 21.5664
lfingers 7.12502
lthumb 17.2701 50.8191
rfemur -48.2384 14.405 3.78821
rtibia 10.326
rfoot -13.4553 -34.1416
rtoes 28.4328
lfemur -60.3634 -38.9571 23.456
ltibia 11.7942
lfoot -32.7161 48.6587
ltoes 36.1649
962
root 0.504702 18.1107 -0.466844 38.4349 3.42246 0.118843
lowerback 16.0504 -0.656077 10.4441
upperback 1.66322 1.61819 8.21585
thorax -7.22045 0.586991 2.63585
lowerneck 10.7873 -5.67672 3.61027
upperneck -16.3225 -5.53095 9.29524
head -6.61484 -3.72245 2.88786
rclavicle 6.36111e-015 -6.04305e-014
rhumerus 15.6251 -1.75352 -83.0163
rradius 25.7361
rwrist 40.471
rhand -9.45289 4.70835
rfingers 7.12502
rthumb 16.5104 -24.6092
lclavicle 6.36111e-015 -6.04305e-014
lhumerus 11.9202 -32.8212 86.8974
lradius 34.6789
lwrist -9.81604
lhand -8.64293 21.4345
lfingers 7.12502
lthumb 17.2901 50.6854
rfemur -48.3207 14.4302 3.72235
rtibia 10.3517
rfoot -13.4545 -34.134
rtoes 28.5363
lfemur -60.4002 -38.9562 23.5113
ltibia 11.7609
lfoot -33.1352 48.5557
ltoes 36.7012
